{"title":"Arrow S02E12 HDTV x264 AAC E-Subs [GWC].mp4","uid":9541968,"size":129304862,"categoryP":"video","categoryS":"tv_shows","magnet":"?xt=urn:btih:c7182a4715cb4ace8420946b4759a5139cdd6f9b&amp;dn=Arrow+S02E12+HDTV+x264+AAC+E-Subs+%5BGWC%5D.mp4&amp;tr=udp%3A%2F%2Ftracker.openbittorrent.com%3A80&amp;tr=udp%3A%2F%2Fopen.demonii.com%3A1337&amp;tr=udp%3A%2F%2Ftracker.coppersurfer.tk%3A6969&amp;tr=udp%3A%2F%2Fexodus.desync.com%3A6969","seeders":1,"leechers":0,"uploader":"canc232","files":1,"time":1391063026,"description":"Arrow S02E12 HDTV x264 AAC E-Subs [GWC] \n\n\nSCREENS : &lt;a href=&quot;\nhttp://imageshack.com/a/img834/8351/prsz.jpg&quot; rel=&quot;nofollow&quot; target=&quot;_NEW&quot;&gt;\nhttp://imageshack.com/a/img834/8351/prsz.jpg&lt;/a&gt; &lt;a href=&quot;\nhttp://imageshack.com/a/img845/2524/f3sf.jpg&quot; rel=&quot;nofollow&quot; target=&quot;_NEW&quot;&gt;\nhttp://imageshack.com/a/img845/2524/f3sf.jpg&lt;/a&gt; &lt;a href=&quot;\nhttp://imageshack.com/a/img839/8505/2y25.jpg&quot; rel=&quot;nofollow&quot; target=&quot;_NEW&quot;&gt;\nhttp://imageshack.com/a/img839/8505/2y25.jpg&lt;/a&gt;\n\n\nMEDIA INFO :\nGeneral \nFormat : MPEG-4 \nFormat profile : Base Media \nFile size : 123 MiB \nDuration : 40mn 43s \nOverall bit rate mode : Variable \nOverall bit rate : 423 Kbps \n\nVideo \nFormat : AVC \nFormat profile : &lt;a class=&quot;__cf_email__&quot; href=&quot;/cdn-cgi/l/email-protection&quot; data-cfemail=&quot;94dcfdf3fcd4d8a7baa4&quot;&gt;[email&amp;#160;protected]&lt;/a&gt;&lt;script cf-hash='f9e31' type=&quot;text/javascript&quot;&gt;\n/* &lt;![CDATA[ */!function(){try{var t=&quot;currentScript&quot;in document?document.currentScript:function(){for(var t=document.getElementsByTagName(&quot;script&quot;),e=t.length;e--;)if(t[e].getAttribute(&quot;cf-hash&quot;))return t[e]}();if(t&amp;&amp;t.previousSibling){var e,r,n,i,c=t.previousSibling,a=c.getAttribute(&quot;data-cfemail&quot;);if(a){for(e=&quot;&quot;,r=parseInt(a.substr(0,2),16),n=2;a.length-n;n+=2)i=parseInt(a.substr(n,2),16)^r,e+=String.fromCharCode(i);e=document.createTextNode(e),c.parentNode.replaceChild(e,c)}}}catch(u){}}();/* ]]&gt; */&lt;/script&gt; \nFormat settings, CABAC : Yes \nFormat settings, ReFrames : 4 frames \nDuration : 40mn 34s \nBit rate : 362 Kbps \nMaximum bit rate : 2 098 Kbps \nWidth : 720 pixels \nHeight : 404 pixels \nDisplay aspect ratio : 16:9 \nFrame rate : 23.976 fps \nStream size : 105 MiB (85%) \nTitle : Arrow S02E12 HDTV x264 AAC E-Subs [GWC] \nWriting library : x264 core \n\nAudio \nFormat : AAC \nFormat profile : HE-AAC / LC \nDuration : 40mn 33s \nBit rate mode : Variable \nChannel(s) : 2 channels \nSampling rate : 48.0 KHz / 24.0 KHz \nStream size : 17.4 MiB (14%) \nLanguage : English \n\nText \nFormat : Timed Text \nDuration : 40mn 43s \nStream size : 25.4 KiB (0%) \nTitle : English Subtitle by elderman \nLanguage : English \n","torrent":{"xt":"urn:btih:c7182a4715cb4ace8420946b4759a5139cdd6f9b","amp;dn":"Arrow+S02E12+HDTV+x264+AAC+E-Subs+%5BGWC%5D.mp4","amp;tr":["udp%3A%2F%2Ftracker.openbittorrent.com%3A80","udp%3A%2F%2Fopen.demonii.com%3A1337","udp%3A%2F%2Ftracker.coppersurfer.tk%3A6969","udp%3A%2F%2Fexodus.desync.com%3A6969"],"infoHash":"c7182a4715cb4ace8420946b4759a5139cdd6f9b","infoHashBuffer":{"type":"Buffer","data":[199,24,42,71,21,203,74,206,132,32,148,107,71,89,165,19,156,221,111,155]},"announce":[],"urlList":[]}}